<svg width="152" height="152" viewBox="0 0 152 152" fill="none" xmlns="http://www.w3.org/2000/svg">
<path fill-rule="evenodd" clip-rule="evenodd" d="M26.3675 26.6169H125.326C128.929 26.6169 131.785 29.4618 131.785 33.0486V40.8127H19.9022V33.0486C19.9022 29.4618 22.7547 26.6169 26.3675 26.6169ZM26.3675 23.4727C21.0669 23.4727 16.7489 27.7715 16.7422 33.0502V113.199C16.7422 118.476 21.0669 122.772 26.3675 122.772H45.0534C47.2408 122.85 47.2408 119.548 45.0534 119.636H26.3675C22.7547 119.636 19.9022 116.786 19.9022 113.199V43.9587H131.785V113.199C131.785 116.786 128.929 119.636 125.326 119.636H106.63C104.453 119.549 104.453 122.85 106.63 122.772H125.326C130.627 122.772 134.945 118.475 134.945 113.199V33.0502C134.945 27.7715 130.627 23.4727 125.326 23.4727H26.3675Z" fill="black"/>
<path d="M29.8499 30.0743C28.9692 30.0926 28.2824 30.803 28.2891 31.678V35.7656C28.2824 36.6423 28.9876 37.361 29.8649 37.361C30.7523 37.361 31.4575 36.6423 31.4474 35.7656V31.678C31.4691 30.7847 30.7372 30.066 29.8499 30.0743Z" fill="black"/>
<path d="M37.9755 30.0743C37.0982 30.0926 36.4081 30.803 36.4181 31.678V35.7656C36.4081 36.6423 37.1132 37.361 38.0006 37.361C38.8812 37.361 39.5864 36.6423 39.5764 35.7656V31.678C39.5948 30.7847 38.8645 30.066 37.9755 30.0743Z" fill="black"/>
<path fill-rule="evenodd" clip-rule="evenodd" d="M64.5682 82.3048C63.6124 82.3314 62.8554 83.1183 62.8704 84.0732L62.8872 91.3782L57.8472 91.3599L60.1901 84.6289C60.6145 83.451 59.6737 82.2199 58.4137 82.3231C57.7152 82.3746 57.1253 82.8421 56.9064 83.5009L53.7732 92.5045C53.3821 93.6192 54.2177 94.792 55.4025 94.8003L62.8955 94.8336L62.9055 99.2556C62.9122 101.568 66.3947 101.551 66.3847 99.2472L66.3329 84.0665C66.3546 83.0833 65.5508 82.2964 64.5682 82.3048Z" fill="black"/>
<path fill-rule="evenodd" clip-rule="evenodd" d="M94.5344 82.3048C93.5785 82.3231 92.8115 83.1183 92.8299 84.0732L92.8466 91.3782L87.8167 91.3599L90.1562 84.6289C90.584 83.451 89.6432 82.2199 88.3799 82.3231C87.6847 82.3746 87.0915 82.8421 86.8759 83.5009L83.7427 92.5045C83.3516 93.6191 84.1771 94.792 85.3686 94.8003L92.855 94.8336L92.8717 99.2555C92.8717 100.217 93.6554 100.989 94.6113 100.981C95.5771 100.981 96.3542 100.2 96.3442 99.2472L96.3024 84.0665C96.3107 83.0833 95.5203 82.2964 94.5344 82.3048Z" fill="black"/>
<path fill-rule="evenodd" clip-rule="evenodd" d="M74.4865 85.6304H75.5309C76.9045 85.6304 77.9489 86.6868 77.9489 88.0576V95.2662C77.9489 96.6254 76.9045 97.6668 75.5309 97.6668H74.4865C73.1129 97.6668 72.0584 96.627 72.0584 95.2662V88.0576C72.0584 86.6868 73.1129 85.6304 74.4865 85.6304ZM74.4865 82.4961C71.4217 82.4961 68.8984 84.9999 68.8984 88.0593V95.2678C68.8984 98.3173 71.4217 100.813 74.4865 100.813H75.5309C78.6023 100.813 81.1089 98.3173 81.1089 95.2678V88.0593C81.1089 84.9999 78.6023 82.4961 75.5309 82.4961H74.4865Z" fill="black"/>
<path fill-rule="evenodd" clip-rule="evenodd" d="M64.9464 64.267H86.7805L102.221 79.6723V101.423L86.7638 116.795H64.9197L49.479 101.394V79.6474L64.9464 64.267ZM64.2747 61.1211C63.8569 61.1294 63.4659 61.2941 63.1718 61.5886L46.7903 77.8872C46.4929 78.1817 46.3207 78.5793 46.3207 78.9969V102.043C46.3107 102.461 46.4778 102.867 46.7736 103.163L63.145 119.488C63.4391 119.774 63.8502 119.939 64.268 119.939H87.4189C87.8467 119.939 88.2444 119.774 88.5418 119.488L104.923 103.189C105.217 102.885 105.383 102.489 105.383 102.072V79.0152C105.383 78.6059 105.216 78.2083 104.923 77.9122L88.5586 61.5886C88.2645 61.2941 87.8534 61.1211 87.4356 61.1211H64.2747Z" fill="black"/>
<path fill-rule="evenodd" clip-rule="evenodd" d="M61.5657 56.1889H90.1476L110.351 76.3189V104.774L90.1192 124.884L61.5473 124.875L41.3441 104.755L41.3542 76.3006L61.5657 56.1889ZM60.7552 53.043C60.3993 53.0779 60.0601 53.2343 59.7994 53.4955L38.6571 74.5338C38.363 74.83 38.1975 75.2342 38.1975 75.6518L38.1875 105.406C38.1875 105.822 38.363 106.221 38.6571 106.516L59.7743 127.562C60.0684 127.857 60.4795 128.021 60.8973 128.021L90.7843 128.03C91.202 128.03 91.6031 127.857 91.8972 127.562L113.039 106.542C113.344 106.248 113.509 105.84 113.509 105.424V75.6684C113.509 75.2525 113.342 74.8549 113.056 74.5588L91.9222 53.5105C91.6281 53.2093 91.2171 53.043 90.7993 53.043H60.9023C60.8605 53.043 60.807 53.043 60.7552 53.043Z" fill="black"/>
</svg>
