<svg width="152" height="152" viewBox="0 0 152 152" fill="none" xmlns="http://www.w3.org/2000/svg">
<g clip-path="url(#clip0_2743_192106)">
<path d="M125.472 74.7181H116.072V16.8736C116.072 10.4945 110.801 5.30469 104.322 5.30469H29.1243C22.6456 5.30469 17.3747 10.4945 17.3747 16.8736V74.7181H7.97493C6.67777 74.7181 5.625 75.7524 5.625 77.0319C5.625 83.411 10.8959 88.6008 17.3747 88.6008H66.7233V141.818C66.7233 143.097 67.7761 144.132 69.0732 144.132H78.473H125.472C126.769 144.132 127.822 143.097 127.822 141.818V77.0319C127.822 75.7524 126.769 74.7181 125.472 74.7181ZM22.0745 16.8736C22.0745 13.0466 25.2376 9.93225 29.1243 9.93225H104.322C108.209 9.93225 111.372 13.0466 111.372 16.8736V74.7181H78.473H69.0732H22.0745V16.8736ZM17.3747 83.9733C14.3104 83.9733 11.6972 82.0389 10.7267 79.3457H19.7246H66.7233V83.9733H17.3747ZM71.4232 86.287V79.3457H76.123V139.504H71.4232V86.287ZM123.122 139.504H80.8229V79.3457H113.722H123.122V139.504Z" fill="#787895"/>
<path d="M134.585 83.6927C133.253 85.0023 132.52 86.7469 132.52 88.6002V95.5416V132.96C132.52 133.319 132.604 133.675 132.766 133.994L137.466 143.249C137.863 144.034 138.679 144.529 139.569 144.529C140.46 144.529 141.273 144.034 141.673 143.249L146.372 133.994C146.535 133.673 146.619 133.319 146.619 132.96V95.5416V88.6002C146.619 86.7469 145.886 85.0023 144.556 83.6927C141.891 81.0712 137.248 81.0712 134.585 83.6927ZM137.219 88.6002C137.219 87.9917 137.471 87.3947 137.908 86.9644C138.794 86.0875 140.342 86.0875 141.231 86.9644C141.668 87.3947 141.919 87.9917 141.919 88.6002V93.2278H137.219V88.6002ZM141.919 123.705H137.219V97.8554H141.919V123.705ZM139.569 137.042L137.219 132.414V128.332H141.919V132.414L139.569 137.042Z" fill="#787895"/>
<path d="M85.5234 97.8567V111.739C85.5234 113.019 86.5762 114.053 87.8734 114.053H116.073C117.37 114.053 118.423 113.019 118.423 111.739V97.8567C118.423 96.5772 117.37 95.543 116.073 95.543H87.8734C86.5762 95.543 85.5234 96.5772 85.5234 97.8567ZM90.2233 100.171H113.723V109.426H90.2233V100.171Z" fill="#787895"/>
<path d="M36.1758 30.7539C36.1758 31.6007 36.6458 32.3805 37.4001 32.7854L47.9255 38.438V51.5779C47.9255 52.559 48.5552 53.4336 49.4929 53.7598C53.4971 55.1504 57.6683 55.9695 61.8935 56.2009C62.723 56.2471 63.5502 56.268 64.375 56.268C69.4226 56.268 74.4139 55.4281 79.2501 53.7598C80.1924 53.4382 80.8245 52.5613 80.8245 51.5779V38.438L87.8743 34.6526V45.0646C85.1461 46.0225 83.1745 48.5677 83.1745 51.5802V58.5216C83.1745 59.8011 84.2272 60.8354 85.5244 60.8354H94.9241C96.2213 60.8354 97.2741 59.8011 97.2741 58.5216V51.5802C97.2741 48.5677 95.3025 46.0225 92.5742 45.0646V30.7539C92.5742 29.9071 92.1042 29.1273 91.3499 28.7224L65.5006 14.8397C64.798 14.4649 63.952 14.4649 63.2494 14.8397L37.4001 28.7224C36.6458 29.1273 36.1758 29.9071 36.1758 30.7539ZM76.1247 40.9623V49.9004C71.5728 51.2725 66.873 51.8255 62.1567 51.5826C58.9255 51.4044 55.7272 50.8422 52.6253 49.9028V40.9623L63.2494 46.6681C63.5995 46.8555 63.9873 46.9504 64.375 46.9504C64.7627 46.9504 65.1505 46.8555 65.5006 46.6681L76.1247 40.9623ZM92.5742 56.2055H87.8743V51.5779C87.8743 50.3007 88.9295 49.2642 90.2243 49.2642C91.5191 49.2642 92.5742 50.3007 92.5742 51.5779V56.2055ZM64.375 19.5066L85.3176 30.7539L64.375 42.0012L43.4324 30.7539L64.375 19.5066Z" fill="#787895"/>
<path d="M106.671 67.7756V16.8724C106.671 15.5929 105.618 14.5586 104.321 14.5586H80.8219V19.1862H101.971V65.4618H31.4733V19.1862H47.9228V14.5586H29.1234C27.8262 14.5586 26.7734 15.5929 26.7734 16.8724V67.7756C26.7734 69.0551 27.8262 70.0893 29.1234 70.0893H104.321C105.618 70.0893 106.671 69.0551 106.671 67.7756Z" fill="#787895"/>
<path d="M141.923 72.4023H137.223V77.0299H141.923V72.4023Z" fill="#787895"/>
<path d="M141.923 63.1484H137.223V67.776H141.923V63.1484Z" fill="#787895"/>
<path d="M141.923 53.8945H137.223V58.5221H141.923V53.8945Z" fill="#787895"/>
<path d="M141.923 44.6406H137.223V49.2682H141.923V44.6406Z" fill="#787895"/>
<path d="M141.923 35.3789H137.223V40.0065H141.923V35.3789Z" fill="#787895"/>
<path d="M132.52 35.3789H127.82V40.0065H132.52V35.3789Z" fill="#787895"/>
<path d="M57.3249 116.363H52.625V120.991H57.3249V116.363Z" fill="#787895"/>
<path d="M47.9225 116.363H43.2227V120.991H47.9225V116.363Z" fill="#787895"/>
<path d="M38.5241 116.363H33.8242V120.991H38.5241V116.363Z" fill="#787895"/>
<path d="M29.1257 116.363H24.4258V120.991H29.1257V116.363Z" fill="#787895"/>
<path d="M29.1257 107.109H24.4258V111.737H29.1257V107.109Z" fill="#787895"/>
<path d="M29.1257 97.8594H24.4258V102.487H29.1257V97.8594Z" fill="#787895"/>
</g>
<defs>
<clipPath id="clip0_2743_192106">
<rect width="150.396" height="150.396" fill="white" transform="translate(0.925781 0.679688)"/>
</clipPath>
</defs>
</svg>
