<svg width="152" height="152" viewBox="0 0 152 152" fill="none" xmlns="http://www.w3.org/2000/svg">
<path d="M135.343 120.12C137.766 117.965 139.326 114.86 139.326 111.371C139.326 104.892 134.056 99.6211 127.577 99.6211C121.098 99.6211 115.827 104.892 115.827 111.371C115.827 114.86 117.387 117.965 119.81 120.12C113.313 123.083 108.777 129.625 108.777 137.22V144.27C108.777 145.569 109.83 146.62 111.127 146.62H144.026C145.324 146.62 146.376 145.569 146.376 144.27V137.22C146.376 129.625 141.841 123.083 135.343 120.12ZM120.527 111.371C120.527 107.484 123.69 104.321 127.577 104.321C131.464 104.321 134.627 107.484 134.627 111.371C134.627 115.258 131.464 118.421 127.577 118.421C123.69 118.421 120.527 115.258 120.527 111.371ZM141.676 141.92H113.477V137.22C113.477 129.444 119.801 123.12 127.577 123.12C135.353 123.12 141.676 129.444 141.676 137.22V141.92Z" fill="#787895"/>
<path d="M7.72884 146.62H40.6279C41.9251 146.62 42.9779 145.569 42.9779 144.27V137.22C42.9779 129.625 38.4425 123.083 31.9449 120.12C34.3677 117.965 35.928 114.86 35.928 111.371C35.928 104.892 30.6571 99.6211 24.1784 99.6211C17.6996 99.6211 12.4287 104.892 12.4287 111.371C12.4287 114.86 13.9891 117.965 16.4118 120.12C9.91428 123.083 5.37891 129.625 5.37891 137.22V144.27C5.37891 145.569 6.43168 146.62 7.72884 146.62ZM17.1286 111.371C17.1286 107.484 20.2916 104.321 24.1784 104.321C28.0652 104.321 31.2282 107.484 31.2282 111.371C31.2282 115.258 28.0652 118.421 24.1784 118.421C20.2916 118.421 17.1286 115.258 17.1286 111.371ZM10.0788 137.22C10.0788 129.444 16.4024 123.12 24.1784 123.12C31.9543 123.12 38.278 129.444 38.278 137.22V141.92H10.0788V137.22Z" fill="#787895"/>
<path d="M57.0781 137.22V144.27C57.0781 145.569 58.1309 146.62 59.4281 146.62H92.3271C93.6243 146.62 94.6771 145.569 94.6771 144.27V137.22C94.6771 129.625 90.1417 123.083 83.6441 120.12C86.0669 117.965 87.6273 114.86 87.6273 111.371C87.6273 104.892 82.3564 99.6211 75.8776 99.6211C69.3988 99.6211 64.1279 104.892 64.1279 111.371C64.1279 114.86 65.6883 117.965 68.1111 120.12C61.6135 123.083 57.0781 129.625 57.0781 137.22ZM68.8278 111.371C68.8278 107.484 71.9908 104.321 75.8776 104.321C79.7644 104.321 82.9274 107.484 82.9274 111.371C82.9274 115.258 79.7644 118.421 75.8776 118.421C71.9908 118.421 68.8278 115.258 68.8278 111.371ZM75.8776 123.12C83.6535 123.12 89.9772 129.444 89.9772 137.22V141.92H61.778V137.22C61.778 129.444 68.1017 123.12 75.8776 123.12Z" fill="#787895"/>
<path d="M75.876 19.7266C64.2156 19.7266 54.7266 29.2132 54.7266 40.876C54.7266 52.5387 64.2156 62.0254 75.876 62.0254C87.5363 62.0254 97.0254 52.5387 97.0254 40.876C97.0254 29.2132 87.5363 19.7266 75.876 19.7266ZM75.876 57.3255C66.8052 57.3255 59.4264 49.9444 59.4264 40.876C59.4264 31.8076 66.8052 24.4264 75.876 24.4264C84.9467 24.4264 92.3255 31.8076 92.3255 40.876C92.3255 49.9444 84.9467 57.3255 75.876 57.3255Z" fill="#787895"/>
<path d="M108.777 50.2737C110.074 50.2737 111.127 49.2233 111.127 47.9238V33.8242C111.127 32.5247 110.074 31.4743 108.777 31.4743L104.897 31.4108C104.408 29.9139 103.802 28.4452 103.055 26.9906L105.79 24.2576C106.232 23.8158 106.479 23.2213 106.479 22.5962C106.479 21.9711 106.232 21.3743 105.79 20.9348L95.8195 10.9664C94.9006 10.0476 93.4155 10.0476 92.4966 10.9664L89.7096 13.6641C88.3091 12.9497 86.838 12.3411 85.2776 11.8429V7.97493C85.2776 6.67542 84.2249 5.625 82.9277 5.625H68.8281C67.5309 5.625 66.4782 6.67542 66.4782 7.97493L66.4171 11.8547C64.9178 12.3411 63.4491 12.9497 61.9945 13.697L59.2615 10.964C58.3427 10.0452 56.8575 10.0452 55.9387 10.964L45.968 20.9325C45.5262 21.3743 45.2794 21.9688 45.2794 22.5939C45.2794 23.219 45.5262 23.8158 45.968 24.2553L48.6657 27.0446C47.9537 28.4452 47.3474 29.9139 46.8468 31.4743H42.9788C41.6817 31.4743 40.6289 32.5247 40.6289 33.8242V47.9238C40.6289 49.2233 41.6817 50.2737 42.9788 50.2737L46.8586 50.3372C47.3474 51.8365 47.9536 53.3052 48.7009 54.7574L45.9656 57.4904C45.5238 57.9322 45.2771 58.5267 45.2771 59.1518C45.2771 59.7769 45.5238 60.3738 45.9656 60.8132L55.9364 70.7816C56.8552 71.7004 58.3404 71.7004 59.2592 70.7816L62.0462 68.0839C63.4468 68.7983 64.9155 69.4046 66.4758 69.9027V73.7731C66.4758 75.0726 67.5286 76.123 68.8258 76.123H82.9254C84.2225 76.123 85.2753 75.0726 85.2753 73.7731L85.3364 69.8933C86.8357 69.4069 88.3044 68.7983 89.7566 68.051L92.4919 70.784C93.4108 71.7028 94.8959 71.7028 95.8148 70.784L105.786 60.8156C106.227 60.3738 106.474 59.7792 106.474 59.1541C106.474 58.5291 106.227 57.9322 105.786 57.4927L103.088 54.701C103.8 53.3052 104.408 51.8365 104.907 50.2737H108.777ZM100.425 48.8826C100.014 50.1492 99.4995 51.3876 98.9002 52.572C97.9579 54.4261 98.2916 56.6397 99.7321 58.0802L100.804 59.1518L94.158 65.7974L93.0841 64.7258C91.6436 63.283 89.4276 62.9469 87.5735 63.8963C86.3939 64.4979 85.1531 65.0102 83.8841 65.4214C81.9055 66.07 80.5778 67.8701 80.5778 69.9051V71.4232H71.178V69.9051C71.178 67.8724 69.8503 66.07 67.867 65.4238C66.6027 65.0125 65.3643 64.5002 64.1823 63.901C62.3282 62.9516 60.1146 63.2853 58.6741 64.7305L57.6001 65.8021L50.9545 59.1565L52.0261 58.0849C53.4642 56.6468 53.7979 54.4308 52.8556 52.5743C52.2564 51.3923 51.7417 50.1539 51.3305 48.8873C50.6843 46.9039 48.8842 45.5739 46.8468 45.5739H45.3288V36.1741H46.8468C48.8842 36.1741 50.6843 34.8441 51.3305 32.8654C51.7417 31.6012 52.2564 30.3604 52.8556 29.176C53.8003 27.3219 53.4666 25.1083 52.0261 23.6678L50.9545 22.5962L57.6001 15.9506L58.6717 17.0222C60.1122 18.4627 62.3235 18.7987 64.1823 17.8517C65.362 17.2501 66.6027 16.7378 67.8717 16.3266C69.8503 15.678 71.178 13.878 71.178 11.8429V10.3249H80.5778V11.8429C80.5778 13.8756 81.9055 15.678 83.8888 16.3243C85.1531 16.7355 86.3915 17.2478 87.5735 17.847C89.4276 18.794 91.6436 18.4603 93.0841 17.0175L94.1557 15.9459L100.801 22.5915L99.7297 23.6678C98.2892 25.106 97.9555 27.3219 98.8979 29.176C99.4995 30.3604 100.014 31.6012 100.423 32.8654C101.072 34.8441 102.872 36.1741 104.909 36.1741H106.427V45.5739H104.909C102.872 45.5739 101.072 46.9039 100.425 48.8826Z" fill="#787895"/>
<path d="M86.5819 38.9204L72.4823 29.5207C71.7585 29.0413 70.8326 28.9919 70.0712 29.4032C69.3052 29.8121 68.8281 30.6087 68.8281 31.4758V50.2753C68.8281 51.1424 69.3052 51.939 70.0689 52.3479C70.4167 52.5336 70.7974 52.6252 71.1781 52.6252C71.6339 52.6252 72.0875 52.4913 72.4823 52.2304L86.5819 42.8307C87.2352 42.3936 87.6276 41.6604 87.6276 40.8755C87.6276 40.0907 87.2352 39.3575 86.5819 38.9204ZM73.528 45.8856V35.8655L81.0407 40.8755L73.528 45.8856Z" fill="#787895"/>
<path d="M78.2272 90.2227H73.5273V94.9225H78.2272V90.2227Z" fill="#787895"/>
<path d="M78.2272 80.8242H73.5273V85.5241H78.2272V80.8242Z" fill="#787895"/>
<path d="M35.9303 38.5234H31.2305V43.2233H35.9303V38.5234Z" fill="#787895"/>
<path d="M26.528 38.5234H21.8281V43.2233H26.528V38.5234Z" fill="#787895"/>
<path d="M26.528 47.9258H21.8281V52.6257H26.528V47.9258Z" fill="#787895"/>
<path d="M26.528 57.3242H21.8281V62.0241H26.528V57.3242Z" fill="#787895"/>
<path d="M26.528 66.7227H21.8281V71.4225H26.528V66.7227Z" fill="#787895"/>
<path d="M26.528 76.125H21.8281V80.8249H26.528V76.125Z" fill="#787895"/>
<path d="M26.528 85.5234H21.8281V90.2233H26.528V85.5234Z" fill="#787895"/>
<path d="M120.528 38.5234H115.828V43.2233H120.528V38.5234Z" fill="#787895"/>
<path d="M129.926 38.5234H125.227V43.2233H129.926V38.5234Z" fill="#787895"/>
<path d="M129.926 47.9258H125.227V52.6257H129.926V47.9258Z" fill="#787895"/>
<path d="M129.926 57.3242H125.227V62.0241H129.926V57.3242Z" fill="#787895"/>
<path d="M129.926 66.7227H125.227V71.4225H129.926V66.7227Z" fill="#787895"/>
<path d="M129.926 76.125H125.227V80.8249H129.926V76.125Z" fill="#787895"/>
<path d="M129.926 85.5234H125.227V90.2233H129.926V85.5234Z" fill="#787895"/>
</svg>
