<svg width="24" height="24" viewBox="0 0 24 24" fill="none" xmlns="http://www.w3.org/2000/svg">
<path d="M2.21179 14.0588C1.9242 12.7005 1.9242 11.2971 2.21179 9.93879C3.32179 10.0688 4.29179 9.70179 4.60779 8.93779C4.92479 8.17279 4.49979 7.22779 3.62179 6.53479C4.37883 5.37111 5.37111 4.37883 6.53479 3.62179C7.22679 4.49879 8.17279 4.92479 8.93779 4.60779C9.70279 4.29079 10.0698 3.32179 9.93879 2.21179C11.2971 1.9242 12.7005 1.9242 14.0588 2.21179C13.9288 3.32179 14.2958 4.29179 15.0598 4.60779C15.8248 4.92479 16.7698 4.49979 17.4628 3.62179C18.6265 4.37883 19.6187 5.37111 20.3758 6.53479C19.4988 7.22679 19.0728 8.17279 19.3898 8.93779C19.7068 9.70279 20.6758 10.0698 21.7858 9.93879C22.0734 11.2971 22.0734 12.7005 21.7858 14.0588C20.6758 13.9288 19.7058 14.2958 19.3898 15.0598C19.0728 15.8248 19.4978 16.7698 20.3758 17.4628C19.6187 18.6265 18.6265 19.6187 17.4628 20.3758C16.7708 19.4988 15.8248 19.0728 15.0598 19.3898C14.2948 19.7068 13.9278 20.6758 14.0588 21.7858C12.7005 22.0734 11.2971 22.0734 9.93879 21.7858C10.0688 20.6758 9.70179 19.7058 8.93779 19.3898C8.17279 19.0728 7.22779 19.4978 6.53479 20.3758C5.37111 19.6187 4.37883 18.6265 3.62179 17.4628C4.49879 16.7708 4.92479 15.8248 4.60779 15.0598C4.29079 14.2948 3.32179 13.9278 2.21179 14.0588ZM3.99879 12.2088C5.09879 12.5138 6.00579 13.2108 6.45579 14.2948C6.90479 15.3798 6.75579 16.5148 6.19379 17.5068C6.28979 17.6088 6.38879 17.7078 6.49079 17.8038C7.48379 17.2418 8.61779 17.0938 9.70279 17.5418C10.7868 17.9918 11.4838 18.8988 11.7888 19.9988C11.9288 20.0028 12.0688 20.0028 12.2088 19.9988C12.5138 18.8988 13.2108 17.9918 14.2948 17.5418C15.3798 17.0928 16.5148 17.2418 17.5068 17.8038C17.6088 17.7078 17.7078 17.6088 17.8038 17.5068C17.2418 16.5138 17.0938 15.3798 17.5418 14.2948C17.9918 13.2108 18.8988 12.5138 19.9988 12.2088C20.0028 12.0688 20.0028 11.9288 19.9988 11.7888C18.8988 11.4838 17.9918 10.7868 17.5418 9.70279C17.0928 8.61779 17.2418 7.48279 17.8038 6.49079C17.7074 6.38918 17.6084 6.29015 17.5068 6.19379C16.5138 6.75579 15.3798 6.90379 14.2948 6.45579C13.2108 6.00579 12.5138 5.09879 12.2088 3.99879C12.0688 3.99508 11.9288 3.99508 11.7888 3.99879C11.4838 5.09879 10.7868 6.00579 9.70279 6.45579C8.61779 6.90479 7.48279 6.75579 6.49079 6.19379C6.38879 6.28979 6.28979 6.38879 6.19379 6.49079C6.75579 7.48379 6.90379 8.61779 6.45579 9.70279C6.00579 10.7868 5.09879 11.4838 3.99879 11.7888C3.99479 11.9288 3.99479 12.0688 3.99879 12.2088ZM11.9988 14.9988C11.2031 14.9988 10.4401 14.6827 9.87747 14.1201C9.31486 13.5575 8.99879 12.7944 8.99879 11.9988C8.99879 11.2031 9.31486 10.4401 9.87747 9.87747C10.4401 9.31486 11.2031 8.99879 11.9988 8.99879C12.7944 8.99879 13.5575 9.31486 14.1201 9.87747C14.6827 10.4401 14.9988 11.2031 14.9988 11.9988C14.9988 12.7944 14.6827 13.5575 14.1201 14.1201C13.5575 14.6827 12.7944 14.9988 11.9988 14.9988ZM11.9988 12.9988C12.264 12.9988 12.5184 12.8934 12.7059 12.7059C12.8934 12.5184 12.9988 12.264 12.9988 11.9988C12.9988 11.7336 12.8934 11.4792 12.7059 11.2917C12.5184 11.1041 12.264 10.9988 11.9988 10.9988C11.7336 10.9988 11.4792 11.1041 11.2917 11.2917C11.1041 11.4792 10.9988 11.7336 10.9988 11.9988C10.9988 12.264 11.1041 12.5184 11.2917 12.7059C11.4792 12.8934 11.7336 12.9988 11.9988 12.9988Z" fill="#A6A5B8"/>
</svg>
