<svg width="29" height="30" viewBox="0 0 29 30" fill="none" xmlns="http://www.w3.org/2000/svg">
<g filter="url(#filter0_d_4457_77148)">
<path d="M21 2C21.552 2 22 2.448 22 3V6.757L20 8.757V4H6V20H20V17.242L22 15.242V21C22 21.552 21.552 22 21 22H5C4.448 22 4 21.552 4 21V3C4 2.448 4.448 2 5 2H21ZM22.778 8.808L24.192 10.222L16.414 18L14.998 17.998L15 16.586L22.778 8.808ZM14 12V14H9V12H14ZM17 8V10H9V8H17Z" fill="#A6A5B8"/>
</g>
<defs>
<filter id="filter0_d_4457_77148" x="-3" y="0" width="32" height="32" filterUnits="userSpaceOnUse" color-interpolation-filters="sRGB">
<feFlood flood-opacity="0" result="BackgroundImageFix"/>
<feColorMatrix in="SourceAlpha" type="matrix" values="0 0 0 0 0 0 0 0 0 0 0 0 0 0 0 0 0 0 127 0" result="hardAlpha"/>
<feOffset dy="4"/>
<feGaussianBlur stdDeviation="2"/>
<feComposite in2="hardAlpha" operator="out"/>
<feColorMatrix type="matrix" values="0 0 0 0 0 0 0 0 0 0 0 0 0 0 0 0 0 0 0.25 0"/>
<feBlend mode="normal" in2="BackgroundImageFix" result="effect1_dropShadow_4457_77148"/>
<feBlend mode="normal" in="SourceGraphic" in2="effect1_dropShadow_4457_77148" result="shape"/>
</filter>
</defs>
</svg>
